<mxfile host="app.diagrams.net" agent="Mozilla/5.0 (Windows NT 10.0; Win64; x64) AppleWebKit/537.36 (KHTML, like Gecko) Chrome/127.0.0.0 Safari/537.36 Edg/127.0.0.0" version="24.7.6">
  <diagram name="Page-1" id="abaU5teWBHSIh3knwFKt">
    <mxGraphModel dx="1829" dy="1744" grid="1" gridSize="10" guides="1" tooltips="1" connect="1" arrows="1" fold="1" page="1" pageScale="1" pageWidth="827" pageHeight="1169" math="0" shadow="0">
      <root>
        <mxCell id="0" />
        <mxCell id="1" parent="0" />
        <mxCell id="ytxkbaWUz_GBkNSJb9Mm-1" value="" style="whiteSpace=wrap;html=1;aspect=fixed;" parent="1" vertex="1">
          <mxGeometry x="70" y="-20" width="730" height="730" as="geometry" />
        </mxCell>
        <mxCell id="ytxkbaWUz_GBkNSJb9Mm-2" value="Gestion d&#39;école" style="rounded=0;whiteSpace=wrap;html=1;" parent="1" vertex="1">
          <mxGeometry x="80" y="10" width="190" height="40" as="geometry" />
        </mxCell>
        <mxCell id="ytxkbaWUz_GBkNSJb9Mm-3" value="élève" style="shape=umlActor;verticalLabelPosition=bottom;verticalAlign=top;html=1;outlineConnect=0;" parent="1" vertex="1">
          <mxGeometry x="20" y="160" width="30" height="60" as="geometry" />
        </mxCell>
        <mxCell id="ytxkbaWUz_GBkNSJb9Mm-4" value="enseignant&amp;nbsp;" style="shape=umlActor;verticalLabelPosition=bottom;verticalAlign=top;html=1;outlineConnect=0;" parent="1" vertex="1">
          <mxGeometry x="20" y="400" width="30" height="60" as="geometry" />
        </mxCell>
        <mxCell id="ytxkbaWUz_GBkNSJb9Mm-5" value="administrateur&amp;nbsp;" style="shape=umlActor;verticalLabelPosition=bottom;verticalAlign=top;html=1;outlineConnect=0;" parent="1" vertex="1">
          <mxGeometry x="10" y="570" width="30" height="60" as="geometry" />
        </mxCell>
        <mxCell id="ytxkbaWUz_GBkNSJb9Mm-7" value="consulter les cours" style="ellipse;whiteSpace=wrap;html=1;" parent="1" vertex="1">
          <mxGeometry x="400" y="180" width="120" height="80" as="geometry" />
        </mxCell>
        <mxCell id="ytxkbaWUz_GBkNSJb9Mm-12" value="gérer les cours" style="ellipse;whiteSpace=wrap;html=1;" parent="1" vertex="1">
          <mxGeometry x="354" y="470" width="120" height="80" as="geometry" />
        </mxCell>
        <mxCell id="ytxkbaWUz_GBkNSJb9Mm-16" value="" style="endArrow=none;html=1;rounded=0;" parent="1" target="ytxkbaWUz_GBkNSJb9Mm-7" edge="1">
          <mxGeometry width="50" height="50" relative="1" as="geometry">
            <mxPoint x="70" y="230" as="sourcePoint" />
            <mxPoint x="430" y="280" as="targetPoint" />
          </mxGeometry>
        </mxCell>
        <mxCell id="ytxkbaWUz_GBkNSJb9Mm-17" value="" style="endArrow=none;html=1;rounded=0;" parent="1" target="ytxkbaWUz_GBkNSJb9Mm-7" edge="1">
          <mxGeometry width="50" height="50" relative="1" as="geometry">
            <mxPoint x="60" y="440" as="sourcePoint" />
            <mxPoint x="430" y="280" as="targetPoint" />
          </mxGeometry>
        </mxCell>
        <mxCell id="ytxkbaWUz_GBkNSJb9Mm-18" value="" style="endArrow=none;html=1;rounded=0;" parent="1" source="ytxkbaWUz_GBkNSJb9Mm-12" edge="1">
          <mxGeometry width="50" height="50" relative="1" as="geometry">
            <mxPoint x="380" y="410" as="sourcePoint" />
            <mxPoint x="60" y="610" as="targetPoint" />
          </mxGeometry>
        </mxCell>
        <mxCell id="ytxkbaWUz_GBkNSJb9Mm-20" value="" style="shape=note;whiteSpace=wrap;html=1;backgroundOutline=1;darkOpacity=0.05;" parent="1" vertex="1">
          <mxGeometry x="270" y="100" width="90" height="110" as="geometry" />
        </mxCell>
        <mxCell id="ytxkbaWUz_GBkNSJb9Mm-21" value="" style="endArrow=none;html=1;rounded=0;exitX=0;exitY=0.5;exitDx=0;exitDy=0;" parent="1" edge="1">
          <mxGeometry width="50" height="50" relative="1" as="geometry">
            <mxPoint x="330" y="625" as="sourcePoint" />
            <mxPoint x="60" y="610" as="targetPoint" />
          </mxGeometry>
        </mxCell>
        <mxCell id="ytxkbaWUz_GBkNSJb9Mm-22" value="gestion l&#39;élèves" style="ellipse;whiteSpace=wrap;html=1;" parent="1" vertex="1">
          <mxGeometry x="354" y="340" width="120" height="80" as="geometry" />
        </mxCell>
        <mxCell id="ytxkbaWUz_GBkNSJb9Mm-23" value="gestion les enseignant&amp;nbsp;" style="ellipse;whiteSpace=wrap;html=1;" parent="1" vertex="1">
          <mxGeometry x="330" y="580" width="120" height="80" as="geometry" />
        </mxCell>
        <mxCell id="ytxkbaWUz_GBkNSJb9Mm-24" value="" style="endArrow=none;html=1;rounded=0;entryX=0;entryY=1;entryDx=0;entryDy=0;" parent="1" target="ytxkbaWUz_GBkNSJb9Mm-22" edge="1">
          <mxGeometry width="50" height="50" relative="1" as="geometry">
            <mxPoint x="60" y="610" as="sourcePoint" />
            <mxPoint x="430" y="400" as="targetPoint" />
          </mxGeometry>
        </mxCell>
        <mxCell id="ytxkbaWUz_GBkNSJb9Mm-25" value="ajouter l&#39;élèves&amp;nbsp;" style="ellipse;whiteSpace=wrap;html=1;" parent="1" vertex="1">
          <mxGeometry x="560" y="290" width="120" height="80" as="geometry" />
        </mxCell>
        <mxCell id="ytxkbaWUz_GBkNSJb9Mm-26" value="supprimer l&#39;élèves" style="ellipse;whiteSpace=wrap;html=1;" parent="1" vertex="1">
          <mxGeometry x="540" y="550" width="120" height="80" as="geometry" />
        </mxCell>
      </root>
    </mxGraphModel>
  </diagram>
</mxfile>
